<svg width="6906" height="2072" viewBox="0 0 6906 2072" fill="none" xmlns="http://www.w3.org/2000/svg">
<path d="M3000.18 632V778.484H2560.73V964.52H2926.94C3020.2 968.914 3069.03 1017.25 3073.42 1109.54V1290.45C3069.03 1384.2 3019.71 1433.76 2925.47 1439.13H2414.24V1292.64H2926.94V1111H2560.73C2466.98 1104.17 2418.15 1055.1 2414.24 963.787V777.752C2418.15 684.979 2466.98 636.395 2560.73 632H3000.18Z" fill="#4B4B4B"/>
<path d="M3747.6 1072.92V778.484H3381.39V1072.92H3747.6ZM3381.39 1219.4V1439.13H3234.91V632H3746.14C3840.38 636.395 3889.69 685.711 3894.09 779.949V1071.45C3889.69 1164.23 3840.86 1213.54 3747.6 1219.4L3895.55 1439.13H3734.42L3586.47 1219.4H3381.39Z" fill="#4B4B4B"/>
<path d="M4055.57 634.93H4202.05V1439.13H4055.57V634.93Z" fill="#4B4B4B"/>
<path d="M4363.54 633.465H4510.02V999.676H4876.23V633.465H5022.72V1001.14C5019.3 1093.43 4970.23 1141.77 4875.5 1146.16H4766.37V1439.13H4620.62V1146.16H4511.49C4415.79 1141.77 4366.47 1093.18 4363.54 1000.41V633.465Z" fill="#4B4B4B"/>
<path d="M5696.9 1292.64V778.484H5330.69V1292.64H5696.9ZM5184.2 777.752C5188.11 684.002 5236.94 635.418 5330.69 632H5696.17C5788.94 635.418 5838.01 684.002 5843.38 777.752V1292.64C5840.94 1387.37 5792.11 1436.2 5696.9 1439.13H5330.69C5234.98 1436.2 5186.16 1387.37 5184.2 1292.64V777.752Z" fill="#4B4B4B"/>
<path d="M6004.87 779.217C6008.29 684.49 6057.11 635.418 6151.35 632H6519.03C6613.27 635.418 6661.61 684.49 6664.05 779.217V851.727H6517.56V778.484H6151.35V1292.64H6517.56V1111H6335.92V964.52H6664.05V1292.64C6659.16 1384.93 6610.82 1433.76 6519.03 1439.13H6151.35C6058.09 1434.25 6009.26 1385.66 6004.87 1293.38V779.217Z" fill="#4B4B4B"/>
<path d="M1873.52 1250.77C1754.91 1693.43 1299.9 1956.13 857.233 1837.52C414.566 1718.91 151.868 1263.9 270.48 821.233C389.093 378.566 844.099 115.868 1286.77 234.48C1729.43 353.093 1992.13 808.099 1873.52 1250.77Z" fill="#4B4B4B"/>
<path fill-rule="evenodd" clip-rule="evenodd" d="M1213.1 1096.6C1259.36 1037.09 1291.65 963.746 1309.97 876.578L1446.61 1169.49C1359.43 1333.06 1222.22 1493.74 1034.96 1651.54L811.46 1558.34C912.631 1488.89 1019.48 1376.62 1132 1221.54L918.354 1177.47C864.821 1255.67 790.966 1330.77 696.79 1402.77L477.266 1314.98C567.201 1254.64 641.055 1186.8 698.827 1111.45C583.792 1070.26 509.404 1013.5 475.661 941.159C442.714 868.45 440.686 798.741 469.577 732.032C499.263 664.951 546.3 616.394 610.688 586.359C675.872 555.954 749.317 553.635 831.023 579.402C912.359 604.375 977.554 660.105 1026.61 746.594C1075.66 833.082 1067.4 934.69 1001.84 1051.42L1213.1 1096.6ZM707.524 921.566C723.838 956.542 749.455 981.373 784.373 996.057C822.907 935.496 845.465 878.032 852.045 823.665C859.42 768.927 847.794 734.667 817.168 720.884C787.337 706.73 757.527 727.895 727.736 784.377C697.575 840.065 690.838 885.794 707.524 921.566Z" fill="white"/>
<path d="M1137.25 732.595L1365.17 626.281L1693.73 1330.66L1465.81 1436.97L1137.25 732.595ZM1017.77 476.457L1245.69 370.143L1335.3 562.246L1107.38 668.561L1017.77 476.457Z" fill="white"/>
</svg>
