<svg width="25" height="25" viewBox="0 0 25 25" fill="none" xmlns="http://www.w3.org/2000/svg">
<path d="M21.3988 3L17.1902 6.6826C15.53 8.13519 14.7 8.86149 13.7659 9.13775C12.9427 9.38118 12.0668 9.38118 11.2436 9.13775C10.3094 8.86149 9.47936 8.13519 7.81925 6.68259L3.61057 3M3.61057 3H8.05764M3.61057 3V7.44707M16.1065 14.7332L16.6318 18.5766C16.7051 19.1295 16.7416 19.406 16.8546 19.6432C16.9544 19.8531 17.0971 20.0397 17.2734 20.1913C17.4726 20.3625 17.7298 20.4704 18.244 20.6863L19.0225 21.0132C19.7837 21.3327 20.1641 21.4925 20.5287 21.4805C20.8497 21.4698 21.161 21.3666 21.425 21.1833C21.7245 20.9752 21.9341 20.6197 22.3536 19.9089L23 18.8131C16.7779 12.6823 8.13101 12.746 2 18.9683L2.66285 20.0545C3.09272 20.7592 3.30766 21.1115 3.61021 21.315C3.87679 21.4945 4.18955 21.5931 4.51084 21.599C4.87545 21.6057 5.25358 21.4402 6.0098 21.1095L6.57371 20.8629C7.15669 20.608 7.44818 20.4804 7.66134 20.277C7.84973 20.0972 7.99341 19.8757 8.08084 19.6305C8.17976 19.3529 8.17741 19.0348 8.17271 18.3985L8.13284 15.008" stroke="black" stroke-width="2.5" stroke-linecap="round" stroke-linejoin="round"/>
</svg>
