<svg width="25" height="25" viewBox="0 0 25 25" fill="none" xmlns="http://www.w3.org/2000/svg">
<path d="M20.8331 3.17969C20.2781 2.67136 18.0302 1.03722 13.0243 1.01577C13.0243 1.01577 7.11735 0.662265 4.2399 3.30281C2.63934 4.90337 2.07877 7.2473 2.01442 10.1546C1.95006 13.0619 1.87824 18.5109 7.13041 19.9921H7.13508L7.13041 22.2483C7.13041 22.2483 7.0959 23.1624 7.69658 23.3461C8.42224 23.5737 8.85129 22.8779 9.54617 22.1299C9.92672 21.7185 10.4509 21.116 10.8492 20.6562C11.4088 20.7112 12.058 20.742 12.7156 20.742C14.4197 20.742 16.0752 20.5321 17.6571 20.1366L17.5172 20.1665C18.2429 19.9305 22.3488 19.4054 23.0129 13.9573C23.7068 8.333 22.6827 4.78491 20.8331 3.17969ZM21.4412 13.5469C20.875 18.094 17.549 18.3831 16.9371 18.579C15.6014 18.9185 14.068 19.1125 12.4889 19.1125C12.0356 19.1125 11.586 19.0966 11.1411 19.0649L11.2008 19.0687C11.2008 19.0687 8.92684 21.8099 8.2189 22.5225C7.98759 22.7539 7.73295 22.7352 7.73762 22.2735C7.73762 21.9722 7.75534 18.5258 7.75534 18.5258C3.30904 17.2928 3.56647 12.6515 3.6187 10.2274C3.67094 7.80321 4.12611 5.81091 5.48135 4.47338C7.91763 2.26562 12.9329 2.59301 12.9329 2.59301C17.1703 2.61073 19.1989 3.88763 19.6709 4.31575C21.2323 5.65421 22.0279 8.85625 21.4412 13.5469ZM15.3682 10.0138V10.0268C15.3682 10.1835 15.2414 10.3104 15.0847 10.3104C14.9327 10.3104 14.8086 10.191 14.8021 10.0408C14.8058 10.0016 14.8086 9.95407 14.8086 9.90837C14.8086 9.16126 14.2033 8.55592 13.4562 8.55592C13.4282 8.55592 13.4002 8.55685 13.3731 8.55872H13.3769C13.2267 8.55032 13.1082 8.4272 13.1082 8.2761C13.1082 8.1194 13.2351 7.99255 13.3918 7.99255H13.4077H13.4067C13.4254 7.99162 13.4487 7.99162 13.4711 7.99162C14.5213 7.99162 15.372 8.84226 15.372 9.89251C15.372 9.93542 15.3701 9.97832 15.3673 10.0203V10.0147L15.3682 10.0138ZM16.2553 10.509C16.2991 8.65479 15.1407 7.20347 12.9413 7.04117C12.793 7.03091 12.6773 6.90779 12.6773 6.75856C12.6773 6.60186 12.8042 6.47501 12.9609 6.47501C12.9674 6.47501 12.9749 6.47501 12.9814 6.47594H12.9805H12.9963C15.1108 6.47594 16.8261 8.19029 16.8261 10.3057C16.8261 10.3813 16.8242 10.4568 16.8196 10.5314L16.8205 10.5212C16.8168 10.6751 16.6918 10.7973 16.5379 10.7973C16.3812 10.7973 16.2543 10.6704 16.2543 10.5137C16.2543 10.5109 16.2543 10.509 16.2543 10.5062L16.2553 10.509ZM18.3073 11.0957V11.0976C18.3073 11.2543 18.1804 11.3811 18.0237 11.3811C17.867 11.3811 17.742 11.2552 17.7411 11.1004C17.7187 7.53552 15.3412 5.59452 12.46 5.574C12.3033 5.574 12.1774 5.44714 12.1774 5.29138C12.1774 5.13561 12.3042 5.00876 12.46 5.00876C15.6863 5.03115 18.2793 7.25756 18.3054 11.0948L18.3073 11.0957ZM17.8176 15.3844V15.3928C17.3456 16.2238 16.4623 17.1417 15.5529 16.8488L15.5445 16.8357C13.8358 16.1977 12.3583 15.3639 11.0385 14.3369L11.0768 14.3649C10.3838 13.8128 9.77469 13.2037 9.24024 12.534L9.22252 12.5107C8.74776 11.9156 8.30285 11.2496 7.91483 10.5464L7.87753 10.4727C7.45127 9.77685 7.06605 8.97285 6.76478 8.12873L6.7368 8.03732C6.44393 7.12792 7.35706 6.24462 8.19279 5.77267H8.20118C8.32244 5.69525 8.46981 5.64861 8.62837 5.64861C8.87741 5.64861 9.0994 5.76334 9.24583 5.94149L9.24677 5.94335C9.24677 5.94335 9.78868 6.58973 10.0209 6.90966C10.2392 7.2072 10.533 7.68382 10.685 7.94965C10.7727 8.08676 10.824 8.25465 10.824 8.43466C10.824 8.70329 10.7083 8.94486 10.5237 9.11182L10.5227 9.11275L9.99854 9.53248C9.85397 9.67239 9.76443 9.86826 9.76443 10.0847C9.76443 10.1061 9.76536 10.1266 9.76723 10.1471V10.1443C10.3073 11.9193 11.6774 13.2895 13.4142 13.8202L13.4534 13.8305C13.4711 13.8323 13.4925 13.8333 13.5131 13.8333C13.7294 13.8333 13.9253 13.7437 14.0652 13.6001L14.4849 13.0759C14.6528 12.8903 14.8944 12.7746 15.163 12.7746C15.3431 12.7746 15.51 12.8269 15.6518 12.9164L15.6481 12.9145C16.4064 13.3464 17.0621 13.8211 17.6599 14.3593L17.6497 14.35C17.8288 14.4936 17.9416 14.7128 17.9416 14.9581C17.9416 15.1158 17.895 15.2622 17.8138 15.3853L17.8157 15.3825L17.8176 15.3844Z" fill="black"/>
</svg>
