<svg width="24" height="24" viewBox="0 0 24 24" fill="none" xmlns="http://www.w3.org/2000/svg">
<g clip-path="url(#clip0_12_27)">
<path d="M17.5833 13.8679C17.2928 13.7303 15.9014 13.0423 15.6415 12.9353C15.3816 12.8282 15.1981 12.7976 14.9993 13.0882C14.8005 13.3787 14.2654 14.0055 14.0972 14.2043C13.929 14.4031 13.7761 14.4184 13.4856 14.2043C12.6512 13.8695 11.8806 13.3936 11.2074 12.7976C10.598 12.2239 10.0822 11.5584 9.67843 10.8253C9.51025 10.55 9.67843 10.3971 9.80075 10.2442C9.92307 10.0913 10.076 9.92315 10.2289 9.75497C10.3407 9.60951 10.4332 9.45019 10.5041 9.28098C10.542 9.20229 10.5617 9.11605 10.5617 9.0287C10.5617 8.94134 10.542 8.85511 10.5041 8.77641C10.5041 8.6388 9.86191 7.24743 9.61727 6.6817C9.37264 6.11598 9.15858 6.19243 8.99039 6.19243H8.3788C8.08745 6.20378 7.81251 6.33026 7.6143 6.54409C7.29437 6.84939 7.04096 7.21748 6.86994 7.62529C6.69892 8.03311 6.61399 8.47185 6.62046 8.91402C6.69867 9.99957 7.09782 11.0374 7.7672 11.8955C8.99554 13.7203 10.6761 15.1953 12.6447 16.1767C13.3174 16.4672 13.8373 16.6354 14.2501 16.773C14.8298 16.9482 15.4426 16.9849 16.039 16.88C16.4352 16.7997 16.8106 16.6388 17.142 16.4073C17.4734 16.1759 17.7537 15.8788 17.9655 15.5345C18.1418 15.1094 18.2 14.6445 18.1337 14.189C18.0573 14.082 17.8738 14.0055 17.5833 13.8679Z" fill="black"/>
<path d="M19.7579 4.05777C18.7255 3.01551 17.4947 2.19056 16.1383 1.63158C14.7819 1.0726 13.3272 0.790906 11.8602 0.803115C9.9168 0.813285 8.01008 1.33316 6.33048 2.31083C4.65088 3.28849 3.25719 4.68972 2.28859 6.37457C1.31999 8.05941 0.810397 9.9689 0.810701 11.9123C0.811005 13.8557 1.3212 15.7651 2.29032 17.4496L0.797363 23.1975L6.67962 21.7045C8.30581 22.5894 10.1283 23.0515 11.9796 23.0482H11.8602C14.0667 23.0626 16.2274 22.4195 18.0669 21.2009C19.9064 19.9823 21.3413 18.2435 22.1886 16.2061C23.0359 14.1688 23.2572 11.9252 22.8243 9.76158C22.3914 7.59795 21.3239 5.61227 19.7579 4.05777ZM11.8602 21.1372C10.2038 21.1385 8.57827 20.6896 7.15737 19.8383L6.82892 19.6443L3.33539 20.555L4.26103 17.151L4.05202 16.8076C2.85967 14.8874 2.41366 12.5964 2.7986 10.3691C3.18354 8.14188 4.37265 6.13341 6.14032 4.7248C7.90798 3.31619 10.1312 2.60544 12.3882 2.72742C14.6452 2.84939 16.7789 3.79559 18.3844 5.3865C19.2452 6.24031 19.9274 7.25689 20.3913 8.377C20.8553 9.49711 21.0916 10.6984 21.0867 11.9107C21.0827 14.3565 20.1094 16.701 18.3799 18.4305C16.6505 20.1599 14.306 21.1333 11.8602 21.1372Z" fill="black"/>
</g>
<defs>
<clipPath id="clip0_12_27">
<rect width="24" height="24" fill="white"/>
</clipPath>
</defs>
</svg>
