<?xml version="1.0" standalone="no"?>
<!DOCTYPE svg PUBLIC "-//W3C//DTD SVG 20010904//EN"
 "http://www.w3.org/TR/2001/REC-SVG-20010904/DTD/svg10.dtd">
<svg version="1.0" xmlns="http://www.w3.org/2000/svg"
 width="512.000000pt" height="512.000000pt" viewBox="0 0 512.000000 512.000000"
 preserveAspectRatio="xMidYMid meet">

<g transform="translate(0.000000,512.000000) scale(0.100000,-0.100000)"
fill="#000000" stroke="none">
<path d="M830 5104 c-42 -18 -86 -58 -108 -99 -15 -27 -17 -109 -20 -871 l-3
-842 -92 -4 c-112 -5 -179 -32 -235 -92 -81 -88 -77 -39 -77 -946 0 -801 0
-805 21 -851 54 -116 140 -169 291 -177 l92 -5 3 -536 c3 -588 1 -562 65 -623
65 -62 -61 -58 1793 -58 1854 0 1728 -4 1793 58 64 61 62 35 65 623 l3 536 92
5 c151 8 237 61 291 177 21 46 21 50 21 851 0 907 4 858 -77 946 -56 60 -123
87 -235 92 l-93 4 -1 302 c-1 165 -4 312 -8 326 -8 30 -994 1160 -1033 1184
-24 15 -138 16 -1270 16 -1088 -1 -1247 -3 -1278 -16z m2400 -714 l0 -530 29
-32 29 -33 466 -3 466 -3 0 -249 0 -250 -1660 0 -1660 0 0 815 0 815 1165 0
1165 0 0 -530z m-835 -1529 c206 -72 325 -263 325 -521 0 -304 -164 -510 -437
-551 -274 -41 -497 105 -569 371 -23 86 -23 252 0 339 54 203 192 337 391 381
65 15 222 4 290 -19z m1225 3 c30 -9 57 -18 59 -19 2 -2 -7 -47 -20 -100 -19
-77 -26 -94 -39 -90 -95 37 -230 42 -318 12 -134 -46 -212 -169 -212 -332 0
-167 82 -292 219 -332 71 -20 200 -20 269 1 40 11 54 12 57 3 14 -43 34 -172
28 -178 -35 -31 -240 -54 -358 -39 -303 38 -468 228 -467 540 0 173 52 300
166 408 78 74 190 127 306 143 80 11 247 2 310 -17z m-2425 -8 c182 -45 301
-146 356 -301 29 -84 36 -236 15 -335 -45 -212 -170 -340 -394 -402 -67 -19
-104 -22 -292 -22 -118 -1 -223 2 -232 6 -17 7 -18 42 -18 532 l0 524 83 10
c113 14 407 7 482 -12z m2908 -103 c31 -65 70 -149 87 -188 l31 -70 65 150
c36 83 73 167 82 187 l17 38 138 0 139 0 -35 -62 c-19 -35 -87 -152 -150 -262
-105 -181 -115 -201 -102 -220 7 -11 70 -120 140 -241 70 -121 136 -235 147
-252 l20 -33 -141 0 -141 0 -96 193 -97 192 -29 -65 c-15 -36 -54 -122 -86
-192 l-57 -127 -137 -1 c-76 0 -138 2 -138 4 0 2 68 122 150 266 83 144 150
267 150 272 0 6 -64 124 -141 262 -78 138 -144 254 -146 259 -2 4 58 7 135 7
l139 0 56 -117z m117 -2013 l0 -480 -1660 0 -1660 0 0 480 0 480 1660 0 1660
0 0 -480z"/>
<path d="M2148 2686 c-71 -19 -112 -56 -154 -140 -32 -67 -37 -84 -41 -177 -6
-122 11 -207 57 -279 51 -79 109 -112 202 -111 140 0 229 109 252 307 14 113
-30 272 -92 337 -57 60 -143 84 -224 63z"/>
<path d="M880 2336 l0 -356 80 0 c242 0 372 145 358 401 -7 138 -57 222 -163
277 -43 22 -66 27 -162 30 l-113 4 0 -356z"/>
</g>
</svg>
