<?xml version="1.0" standalone="no"?>
<!DOCTYPE svg PUBLIC "-//W3C//DTD SVG 20010904//EN"
 "http://www.w3.org/TR/2001/REC-SVG-20010904/DTD/svg10.dtd">
<svg version="1.0" xmlns="http://www.w3.org/2000/svg"
 width="512.000000pt" height="512.000000pt" viewBox="0 0 512.000000 512.000000"
 preserveAspectRatio="xMidYMid meet">

<g transform="translate(0.000000,512.000000) scale(0.100000,-0.100000)"
fill="#000000" stroke="none">
<path d="M605 5110 c-11 -4 -31 -20 -45 -35 l-25 -27 0 -2489 0 -2489 33 -32
32 -33 1960 0 1960 0 32 33 33 32 3 2063 c1 1134 0 2073 -3 2087 -8 33 -838
867 -882 886 -27 12 -273 14 -1555 13 -838 0 -1532 -4 -1543 -9z m2933 -312
l-3 -83 -1382 -3 -1383 -2 0 85 0 85 1385 0 1386 0 -3 -82z m442 -293 l195
-195 -198 0 -197 0 0 195 c0 107 1 195 3 195 1 0 90 -88 197 -195z m-440 -190
c0 -169 7 -198 54 -229 22 -14 68 -16 391 -16 l365 0 0 -1915 0 -1915 -1790 0
-1790 0 0 2115 0 2115 1385 0 1385 0 0 -155z"/>
<path d="M2118 3533 c-289 -289 -421 -427 -426 -448 -5 -16 -5 -43 -1 -60 6
-21 134 -156 426 -447 l419 -418 49 0 49 0 378 377 c262 262 385 391 400 422
35 72 24 172 -25 236 -15 19 -32 5 -412 -375 l-395 -395 -312 313 -313 312
315 315 315 315 115 -115 115 -115 -180 -180 -180 -180 80 -80 80 -80 227 227
c125 125 233 240 239 256 25 59 5 87 -229 320 l-219 217 -49 0 -49 0 -417
-417z"/>
<path d="M1850 975 l0 -385 105 0 105 0 0 129 0 128 83 6 c135 9 210 55 247
153 39 105 22 211 -45 280 -60 62 -110 74 -322 74 l-173 0 0 -385z m293 214
c45 -12 62 -42 53 -93 -9 -46 -47 -76 -97 -76 l-39 0 0 90 c0 101 1 102 83 79z"/>
<path d="M2530 1097 c0 -290 6 -330 59 -403 62 -84 197 -126 339 -105 118 18
189 68 234 166 22 48 23 62 26 328 l3 277 -105 0 -106 0 0 -244 c0 -134 -3
-257 -6 -275 -4 -17 -18 -42 -32 -56 -20 -20 -34 -25 -77 -25 -64 0 -100 24
-115 78 -5 21 -10 144 -10 280 l0 242 -105 0 -105 0 0 -263z"/>
<path d="M3350 974 l0 -386 198 4 c232 5 286 19 346 90 84 97 60 255 -45 298
-36 15 -36 20 4 45 48 30 79 98 74 163 -6 84 -61 141 -158 161 -27 6 -133 11
-234 11 l-185 0 0 -386z m313 225 c44 -12 62 -44 47 -83 -12 -34 -39 -46 -99
-46 l-51 0 0 70 0 70 33 0 c17 0 49 -5 70 -11z m36 -307 c29 -21 39 -69 21
-101 -12 -23 -66 -41 -122 -41 l-38 0 0 86 0 87 57 -6 c32 -3 68 -14 82 -25z"/>
<path d="M1322 1181 c-60 -21 -114 -68 -143 -123 -26 -50 -39 -155 -29 -226
15 -108 64 -176 158 -220 50 -23 69 -27 162 -26 75 0 120 5 158 18 l52 18 0
75 c0 68 -2 74 -17 68 -81 -33 -185 -44 -241 -24 -34 12 -62 47 -62 79 0 19 6
20 181 20 l181 0 -4 93 c-5 105 -25 154 -82 205 -69 60 -209 79 -314 43z m183
-146 c14 -13 25 -33 25 -45 0 -19 -6 -20 -85 -20 -89 0 -95 3 -73 43 28 53 92
64 133 22z"/>
</g>
</svg>
