<?xml version="1.0" standalone="no"?>
<!DOCTYPE svg PUBLIC "-//W3C//DTD SVG 20010904//EN"
 "http://www.w3.org/TR/2001/REC-SVG-20010904/DTD/svg10.dtd">
<svg version="1.0" xmlns="http://www.w3.org/2000/svg"
 width="512.000000pt" height="512.000000pt" viewBox="0 0 512.000000 512.000000"
 preserveAspectRatio="xMidYMid meet">

<g transform="translate(0.000000,512.000000) scale(0.100000,-0.100000)"
fill="#000000" stroke="none">
<path d="M1262 5101 c-66 -23 -117 -63 -159 -125 -44 -65 -53 -103 -53 -232
l0 -112 -122 -5 c-80 -3 -140 -11 -170 -22 -70 -25 -139 -92 -174 -167 l-29
-63 0 -2055 c0 -1967 1 -2057 18 -2108 25 -70 101 -152 169 -183 l53 -24 1520
0 1520 0 57 28 c70 34 131 101 158 173 16 43 20 79 20 168 l0 114 123 5 c79 3
139 11 169 22 70 25 139 92 174 167 l29 63 3 1510 3 1509 -678 678 -678 678
-950 0 c-894 -1 -953 -2 -1003 -19z m1860 -648 l3 -528 29 -55 c37 -73 113
-143 184 -172 57 -23 61 -23 575 -26 l517 -3 -2 -1452 c-3 -1349 -4 -1454 -20
-1483 -24 -43 -71 -81 -117 -94 -26 -7 -525 -9 -1507 -8 -1644 3 -1501 -3
-1561 75 l-28 36 -3 2036 c-1 1120 0 2051 3 2069 7 39 58 100 100 118 24 11
208 13 927 14 l897 0 3 -527z m766 -641 c-471 -3 -490 -1 -553 51 -75 62 -75
56 -75 562 l0 450 530 -530 530 -530 -432 -3z m-2838 -1192 c0 -1821 0 -1871
19 -1920 30 -78 81 -134 159 -172 l67 -33 1317 -3 1318 -2 0 -105 c0 -114 -8
-146 -48 -189 -56 -59 39 -56 -1570 -56 l-1479 0 -44 23 c-29 16 -52 38 -69
68 l-25 44 0 2040 c0 1879 1 2042 17 2070 43 78 102 104 241 105 l97 0 0
-1870z"/>
<path d="M1840 3268 c-24 -13 -58 -40 -74 -61 l-31 -39 0 -397 0 -397 27 -41
c16 -24 44 -49 70 -62 44 -21 47 -21 977 -21 911 0 933 0 971 20 47 24 84 71
99 125 14 53 15 696 0 748 -13 49 -63 105 -114 128 -38 18 -92 19 -960 19
l-921 0 -44 -22z m1890 -138 c19 -19 20 -33 20 -358 0 -289 -2 -341 -16 -360
l-15 -22 -913 0 c-696 0 -915 3 -924 12 -9 9 -12 103 -12 362 0 311 2 351 17
368 15 17 57 18 920 18 890 0 903 0 923 -20z"/>
<path d="M2062 3030 c-21 -20 -22 -27 -22 -260 0 -227 1 -241 20 -260 11 -11
33 -20 50 -20 50 0 70 30 70 105 l0 65 49 0 c87 0 165 41 198 103 22 42 22
142 0 183 -22 42 -69 81 -115 94 -20 5 -80 10 -133 10 -82 0 -98 -3 -117 -20z
m228 -140 c42 -42 8 -90 -65 -90 l-45 0 0 55 0 55 45 0 c32 0 51 -6 65 -20z"/>
<path d="M2573 3028 c-23 -24 -23 -29 -23 -259 0 -196 3 -238 16 -257 14 -21
22 -22 142 -22 150 0 190 9 242 56 132 120 110 391 -40 474 -40 22 -59 25
-180 28 -132 4 -135 3 -157 -20z m292 -150 c47 -54 44 -171 -5 -220 -26 -25
-35 -28 -99 -28 l-71 0 0 141 0 141 76 -4 c68 -3 79 -6 99 -30z"/>
<path d="M3172 3030 c-21 -20 -22 -27 -22 -258 0 -268 3 -282 65 -282 55 0 75
35 75 131 l0 79 109 0 c106 0 110 1 130 26 27 35 26 59 -4 89 -23 23 -31 25
-130 25 l-105 0 0 35 0 35 120 0 c107 0 122 2 140 20 11 11 20 33 20 50 0 17
-9 39 -20 50 -18 18 -33 20 -188 20 -155 0 -170 -2 -190 -20z"/>
<path d="M1770 1823 c-25 -9 -40 -35 -40 -69 0 -68 -68 -64 1081 -64 l1038 0
21 27 c25 32 20 69 -12 96 -19 16 -83 17 -1047 16 -564 0 -1033 -3 -1041 -6z"/>
<path d="M1780 1153 c-50 -18 -68 -84 -32 -116 17 -16 105 -17 1058 -17 571 0
1044 4 1050 8 46 30 35 103 -18 121 -32 11 -2028 15 -2058 4z"/>
</g>
</svg>
