<?xml version="1.0" standalone="no"?>
<!DOCTYPE svg PUBLIC "-//W3C//DTD SVG 20010904//EN"
 "http://www.w3.org/TR/2001/REC-SVG-20010904/DTD/svg10.dtd">
<svg version="1.0" xmlns="http://www.w3.org/2000/svg"
 width="512.000000pt" height="512.000000pt" viewBox="0 0 512.000000 512.000000"
 preserveAspectRatio="xMidYMid meet">

<g transform="translate(0.000000,512.000000) scale(0.100000,-0.100000)"
fill="#000000" stroke="none">
<path d="M625 5095 c-29 -28 -32 -64 -7 -94 9 -11 244 -143 522 -292 278 -149
506 -272 506 -273 1 0 55 -354 119 -786 88 -591 121 -791 134 -810 12 -17 29
-26 52 -28 31 -3 81 30 494 324 253 179 478 339 501 354 l40 29 355 -195 c208
-114 365 -194 380 -194 15 0 36 8 47 18 37 31 756 1077 760 1104 3 19 -3 34
-21 52 -34 34 -71 33 -105 -1 -15 -16 -180 -247 -366 -515 -186 -268 -341
-486 -345 -484 -416 226 -1380 760 -1378 763 6 5 2490 833 2493 830 1 -1 -45
-69 -102 -151 -58 -82 -107 -160 -110 -173 -9 -33 10 -71 41 -85 50 -23 73 2
259 269 97 139 178 263 181 276 5 17 -1 33 -20 55 l-27 32 -2189 0 -2190 0
-24 -25z m3449 -132 c-12 -2 -544 -93 -1183 -202 l-1162 -199 -362 195 c-199
107 -369 199 -377 204 -8 5 667 8 1545 7 858 0 1550 -3 1539 -5z m-989 -479
c-517 -172 -958 -321 -981 -329 -23 -9 -46 -26 -51 -38 -6 -13 -30 -170 -54
-350 -24 -179 -45 -324 -48 -322 -6 7 -149 969 -145 974 5 5 2180 379 2204
379 8 0 -408 -141 -925 -314z m-527 -729 c150 -83 271 -153 269 -158 -5 -16
-762 -547 -765 -537 -4 11 106 863 114 888 4 15 -23 29 382 -193z"/>
<path d="M1890 2699 c-61 -25 -81 -88 -40 -129 22 -22 48 -25 103 -9 50 13 77
42 77 79 0 59 -67 88 -140 59z"/>
<path d="M1581 2572 c-73 -42 -91 -73 -69 -119 22 -47 64 -50 139 -13 87 44
99 56 99 101 0 77 -69 90 -169 31z"/>
<path d="M1339 2412 c-74 -49 -119 -102 -119 -140 0 -28 42 -62 77 -62 41 0
149 89 158 131 15 68 -55 112 -116 71z"/>
<path d="M1086 2162 c-82 -91 -105 -163 -66 -202 23 -23 68 -26 92 -7 32 24
98 131 98 157 0 59 -85 95 -124 52z"/>
<path d="M1286 2089 c-19 -15 -26 -30 -26 -54 0 -63 90 -97 164 -64 51 23 55
103 7 128 -35 19 -115 13 -145 -10z"/>
<path d="M1575 2065 c-29 -28 -32 -64 -7 -94 23 -28 162 -64 197 -51 43 16 59
76 30 114 -14 18 -129 56 -173 56 -12 0 -34 -11 -47 -25z"/>
<path d="M1895 1935 c-44 -43 -31 -79 50 -146 77 -63 125 -67 154 -12 19 38
12 61 -31 104 -85 83 -131 97 -173 54z"/>
<path d="M688 1897 c-35 -26 -44 -40 -46 -69 -2 -29 2 -40 24 -57 36 -29 63
-26 112 9 49 36 65 61 56 95 -15 61 -81 71 -146 22z"/>
<path d="M913 1865 c-24 -17 -63 -123 -63 -171 0 -64 76 -93 121 -46 22 22 59
125 59 162 0 59 -67 90 -117 55z"/>
<path d="M459 1713 c-28 -26 -57 -60 -65 -75 -27 -51 8 -108 66 -108 29 1 39
8 103 77 54 60 60 91 22 128 -37 38 -68 32 -126 -22z"/>
<path d="M2118 1675 c-15 -8 -30 -25 -33 -36 -7 -22 9 -122 27 -171 20 -53
101 -58 129 -7 26 49 -13 197 -57 218 -31 14 -33 14 -66 -4z"/>
<path d="M840 1515 c-21 -23 -23 -30 -16 -102 8 -98 27 -128 81 -128 29 0 42
6 58 27 18 24 19 33 9 110 -8 65 -15 86 -32 100 -31 25 -72 23 -100 -7z"/>
<path d="M289 1485 c-15 -8 -40 -43 -62 -84 -31 -62 -35 -75 -25 -101 11 -34
35 -50 72 -50 32 0 60 30 97 103 36 71 33 109 -11 132 -35 18 -38 18 -71 0z"/>
<path d="M2108 1330 c-9 -6 -31 -46 -48 -91 -27 -71 -29 -83 -18 -107 18 -37
53 -53 91 -40 23 9 36 25 58 74 34 75 37 126 9 154 -21 21 -64 26 -92 10z"/>
<path d="M954 1200 c-29 -11 -47 -37 -47 -70 0 -29 51 -118 87 -151 35 -34 88
-23 112 22 17 34 8 61 -48 143 -34 51 -67 69 -104 56z"/>
<path d="M143 1175 c-23 -16 -63 -125 -63 -170 0 -57 68 -90 113 -55 32 25 71
144 61 185 -12 49 -69 69 -111 40z"/>
<path d="M1948 1042 c-9 -4 -43 -28 -77 -54 -56 -44 -61 -51 -61 -86 0 -48 24
-72 71 -72 27 0 49 11 94 48 53 42 60 52 63 88 2 29 -2 44 -15 56 -23 20 -54
28 -75 20z"/>
<path d="M1161 924 c-25 -31 -27 -61 -7 -90 19 -26 126 -75 168 -76 51 -2 82
53 62 107 -9 22 -136 85 -173 85 -20 0 -36 -9 -50 -26z"/>
<path d="M1565 873 c-11 -2 -30 -6 -43 -9 -31 -6 -53 -58 -40 -95 14 -42 53
-53 140 -40 57 9 78 17 96 37 27 31 28 54 1 88 -18 23 -27 26 -77 25 -31 -1
-66 -3 -77 -6z"/>
<path d="M69 834 c-21 -23 -24 -34 -24 -111 0 -77 2 -87 24 -104 32 -26 73
-24 99 4 19 20 22 35 22 108 0 90 -3 100 -37 118 -34 17 -57 13 -84 -15z"/>
<path d="M90 500 c-23 -23 -25 -53 -6 -133 17 -72 38 -97 83 -97 40 0 73 30
73 66 0 49 -31 149 -52 167 -27 23 -73 22 -98 -3z"/>
<path d="M191 174 c-27 -34 -26 -49 2 -104 39 -78 110 -92 146 -29 13 24 13
31 -2 71 -24 62 -51 88 -92 88 -24 0 -39 -7 -54 -26z"/>
</g>
</svg>
