<?xml version="1.0" standalone="no"?>
<!DOCTYPE svg PUBLIC "-//W3C//DTD SVG 20010904//EN"
 "http://www.w3.org/TR/2001/REC-SVG-20010904/DTD/svg10.dtd">
<svg version="1.0" xmlns="http://www.w3.org/2000/svg"
 width="512.000000pt" height="512.000000pt" viewBox="0 0 512.000000 512.000000"
 preserveAspectRatio="xMidYMid meet">

<g transform="translate(0.000000,512.000000) scale(0.100000,-0.100000)"
fill="#000000" stroke="none">
<path d="M738 4986 c-138 -50 -227 -158 -248 -303 -13 -92 -13 -4154 0 -4246
18 -124 84 -219 192 -278 l63 -34 1540 0 1540 0 57 27 c73 34 142 103 176 176
l27 57 3 1411 2 1412 47 7 c220 33 419 217 478 440 20 77 20 223 0 300 -49
184 -191 343 -367 409 -35 13 -84 27 -110 31 l-46 7 -4 167 c-3 155 -5 170
-30 223 -34 73 -103 142 -176 176 l-57 27 -1525 2 c-1237 2 -1532 0 -1562 -11z
m3097 -123 c47 -25 96 -75 121 -123 15 -28 19 -65 22 -187 4 -145 3 -153 -15
-153 -37 0 -137 -31 -202 -63 -90 -44 -215 -168 -258 -257 -46 -93 -64 -171
-64 -275 0 -104 18 -182 64 -275 43 -89 168 -213 258 -257 65 -32 165 -63 201
-63 18 0 18 -55 16 -1397 l-3 -1398 -22 -40 c-25 -47 -74 -95 -123 -121 -34
-18 -91 -19 -1540 -19 -1475 0 -1506 0 -1545 20 -21 10 -56 36 -76 57 -75 77
-69 -108 -69 2249 0 2287 -3 2155 51 2228 27 37 85 76 130 90 22 6 583 9 1524
8 l1490 -2 40 -22z m297 -584 c185 -39 338 -192 377 -377 70 -336 -235 -641
-571 -571 -183 38 -339 194 -377 377 -70 335 236 641 571 571z"/>
<path d="M1622 4720 c-25 -10 -42 -46 -34 -70 13 -39 20 -40 512 -40 457 0
478 1 494 19 25 27 17 72 -14 88 -30 15 -920 18 -958 3z"/>
<path d="M2833 4720 c-31 -13 -45 -43 -34 -73 12 -31 29 -37 100 -37 44 0 62
5 75 19 25 27 17 72 -14 88 -29 14 -95 16 -127 3z"/>
<path d="M2214 4191 c-102 -25 -197 -109 -234 -209 -29 -77 -25 -186 10 -257
34 -71 107 -139 177 -165 78 -29 196 -25 265 8 142 70 220 246 174 393 -53
167 -228 269 -392 230z m198 -148 c114 -82 121 -252 13 -341 -85 -70 -196 -68
-276 5 -55 50 -72 87 -73 158 0 71 27 131 77 169 50 38 76 46 149 43 57 -2 73
-7 110 -34z"/>
<path d="M2190 3459 c-25 -5 -79 -25 -120 -46 -192 -94 -331 -325 -356 -590
-5 -59 -3 -77 10 -98 l16 -25 550 0 550 0 15 24 c30 46 -8 262 -70 392 -122
255 -356 390 -595 343z m261 -147 c147 -72 267 -259 292 -454 l7 -48 -461 0
-462 0 7 52 c25 186 142 374 275 443 74 38 106 45 192 42 73 -3 96 -8 150 -35z"/>
<path d="M1185 2315 c-30 -29 -31 -35 -4 -69 l20 -26 1083 0 c1192 0 1126 -3
1126 60 0 63 65 60 -1123 60 l-1078 0 -24 -25z"/>
<path d="M1185 1785 c-30 -29 -31 -35 -4 -69 l20 -26 1083 0 c1192 0 1126 -3
1126 60 0 63 65 60 -1123 60 l-1078 0 -24 -25z"/>
<path d="M1720 1260 c-11 -11 -20 -29 -20 -40 0 -11 9 -29 20 -40 20 -20 33
-20 563 -20 461 0 546 2 564 15 32 23 35 54 8 81 l-24 24 -546 0 c-532 0 -545
0 -565 -20z"/>
<path d="M2265 763 c-11 -2 -30 -6 -43 -9 -32 -6 -102 -73 -119 -111 -7 -18
-13 -54 -13 -80 0 -169 200 -262 327 -150 132 116 72 320 -102 349 -16 3 -39
3 -50 1z m80 -138 c52 -51 16 -145 -54 -145 -46 0 -85 39 -85 85 0 74 88 112
139 60z"/>
<path d="M4220 4003 c-8 -3 -72 -62 -142 -131 l-127 -126 -50 47 c-28 26 -59
47 -70 47 -25 0 -62 -46 -54 -68 7 -20 130 -149 155 -163 12 -7 26 -5 45 5 36
19 313 298 314 317 3 30 -3 45 -23 62 -21 18 -24 19 -48 10z"/>
</g>
</svg>
