<?xml version="1.0" standalone="no"?>
<!DOCTYPE svg PUBLIC "-//W3C//DTD SVG 20010904//EN"
 "http://www.w3.org/TR/2001/REC-SVG-20010904/DTD/svg10.dtd">
<svg version="1.0" xmlns="http://www.w3.org/2000/svg"
 width="512.000000pt" height="512.000000pt" viewBox="0 0 512.000000 512.000000"
 preserveAspectRatio="xMidYMid meet">

<g transform="translate(0.000000,512.000000) scale(0.100000,-0.100000)"
fill="#000000" stroke="none">
<path d="M2345 4789 c-293 -37 -613 -147 -864 -296 -573 -342 -964 -926 -1068
-1593 -24 -160 -24 -493 0 -645 41 -247 112 -472 216 -678 l57 -112 -156 -570
c-86 -314 -153 -571 -150 -573 4 -1 265 65 581 148 315 82 579 150 586 150 8
0 53 -20 101 -44 186 -93 437 -169 671 -202 153 -22 446 -22 596 1 504 75 935
292 1282 646 180 183 303 356 413 582 326 663 301 1447 -65 2082 -347 603
-954 1010 -1639 1100 -128 16 -442 19 -561 4z m446 -369 c290 -30 559 -120
797 -268 117 -73 192 -132 306 -242 166 -160 274 -305 374 -506 131 -259 191
-519 192 -823 0 -316 -63 -576 -211 -861 -80 -153 -172 -282 -298 -412 -162
-169 -308 -278 -499 -376 -248 -127 -489 -188 -782 -199 -224 -8 -416 20 -645
94 -82 26 -280 118 -370 171 l-50 29 -343 -90 c-188 -49 -345 -87 -348 -85 -2
3 37 156 87 339 l91 335 -57 94 c-110 179 -193 394 -237 610 -20 102 -23 142
-23 355 1 209 4 253 23 345 54 252 172 528 309 719 79 110 236 278 338 361
377 308 870 458 1346 410z"/>
<path d="M1765 3596 c-85 -32 -221 -210 -255 -336 -49 -179 -17 -390 87 -580
89 -161 261 -388 417 -549 292 -299 564 -466 961 -587 79 -24 106 -28 225 -28
117 0 143 3 195 24 132 51 256 144 296 221 47 93 65 271 31 302 -19 18 -398
203 -474 231 -27 11 -58 16 -72 12 -15 -4 -50 -39 -90 -90 -116 -148 -164
-196 -199 -196 -38 0 -246 101 -347 168 -88 59 -198 156 -282 250 -86 97 -198
267 -198 302 0 21 19 50 70 109 88 102 113 150 107 205 -6 57 -190 494 -221
525 -23 23 -35 25 -118 28 -64 2 -106 -1 -133 -11z"/>
</g>
</svg>
