<?xml version="1.0" standalone="no"?>
<!DOCTYPE svg PUBLIC "-//W3C//DTD SVG 20010904//EN"
 "http://www.w3.org/TR/2001/REC-SVG-20010904/DTD/svg10.dtd">
<svg version="1.0" xmlns="http://www.w3.org/2000/svg"
 width="512.000000pt" height="512.000000pt" viewBox="0 0 512.000000 512.000000"
 preserveAspectRatio="xMidYMid meet">

<g transform="translate(0.000000,512.000000) scale(0.100000,-0.100000)"
fill="#000000" stroke="none">
<path d="M2455 4875 c-27 -7 -234 -91 -460 -185 -225 -94 -583 -244 -795 -332
-212 -89 -397 -168 -411 -177 -77 -48 -147 -132 -178 -217 -12 -30 -31 -129
-43 -217 -19 -139 -22 -210 -23 -502 0 -356 6 -435 51 -715 106 -656 379
-1223 789 -1636 257 -258 574 -466 930 -610 l120 -49 125 0 125 0 120 48 c158
64 358 168 497 259 662 431 1089 1130 1227 2013 40 258 46 344 46 680 -1 430
-26 659 -86 777 -32 62 -121 151 -183 181 -108 53 -1593 669 -1646 683 -67 17
-139 17 -205 -1z m985 -489 c459 -192 820 -349 839 -364 65 -53 90 -114 112
-279 26 -194 36 -612 20 -818 -65 -824 -328 -1453 -805 -1930 -243 -243 -487
-404 -841 -556 -97 -42 -103 -43 -205 -43 -101 0 -108 1 -204 43 -54 23 -140
63 -190 88 -734 366 -1212 1021 -1390 1903 -84 415 -100 962 -40 1365 17 112
49 181 105 227 27 21 1535 661 1649 699 14 5 52 7 85 5 52 -3 167 -49 865
-340z"/>
<path d="M1880 4264 c-360 -151 -715 -299 -788 -330 -81 -34 -139 -65 -147
-78 -41 -62 -69 -639 -46 -932 89 -1129 610 -1924 1505 -2299 142 -59 170 -59
312 0 895 375 1415 1170 1505 2299 22 279 -4 857 -42 928 -5 10 -23 25 -39 33
-80 41 -1565 655 -1583 654 -12 0 -317 -124 -677 -275z m1432 -204 l726 -303
5 -42 c32 -232 33 -727 3 -955 -129 -953 -552 -1590 -1289 -1940 -173 -82
-189 -87 -235 -71 -72 25 -338 160 -417 211 -617 405 -956 1029 -1041 1920
-25 252 -7 864 24 878 206 93 1463 610 1478 608 11 -1 347 -139 746 -306z"/>
<path d="M2412 3670 c-97 -26 -163 -62 -241 -135 -80 -74 -123 -140 -157 -242
-24 -68 -28 -98 -32 -237 l-4 -160 -54 -49 c-35 -31 -65 -72 -86 -115 l-33
-67 0 -405 0 -405 31 -65 c39 -83 101 -145 184 -184 l65 -31 475 0 475 0 67
32 c82 39 142 99 182 183 l31 65 0 405 0 405 -33 67 c-21 43 -51 84 -86 115
l-54 49 -4 160 c-4 139 -8 169 -32 237 -34 102 -77 168 -157 242 -80 74 -144
109 -245 135 -96 25 -197 25 -292 0z m298 -169 c126 -48 225 -161 254 -290 9
-38 16 -113 16 -165 l0 -96 -421 0 -422 0 5 128 c4 96 11 140 27 182 44 115
146 211 266 250 78 26 196 22 275 -9z m345 -746 c36 -22 57 -45 77 -84 l28
-53 0 -352 c0 -218 -4 -366 -11 -390 -14 -50 -82 -118 -135 -134 -56 -16 -849
-17 -905 -1 -52 16 -103 61 -128 112 -20 41 -21 59 -21 403 l0 360 26 52 c14
29 39 62 56 74 67 47 77 48 534 45 l431 -2 48 -30z"/>
<path d="M2515 2601 c-139 -35 -213 -181 -156 -307 17 -37 93 -114 113 -114 4
0 8 -45 8 -99 0 -90 2 -103 23 -127 33 -37 81 -37 114 0 21 24 23 37 23 127 0
54 4 99 8 99 20 0 96 77 113 114 35 78 19 178 -39 239 -52 55 -142 84 -207 68z
m93 -179 c15 -19 16 -47 2 -73 -8 -14 -21 -19 -51 -19 -32 0 -41 4 -50 24 -32
69 53 127 99 68z"/>
</g>
</svg>
