<?xml version="1.0" standalone="no"?>
<!DOCTYPE svg PUBLIC "-//W3C//DTD SVG 20010904//EN"
 "http://www.w3.org/TR/2001/REC-SVG-20010904/DTD/svg10.dtd">
<svg version="1.0" xmlns="http://www.w3.org/2000/svg"
 width="512.000000pt" height="512.000000pt" viewBox="0 0 512.000000 512.000000"
 preserveAspectRatio="xMidYMid meet">

<g transform="translate(0.000000,512.000000) scale(0.100000,-0.100000)"
fill="#000000" stroke="none">
<path d="M4760 5100 c-672 -70 -1291 -268 -1700 -543 -145 -97 -208 -153 -537
-480 l-331 -329 -469 -53 c-257 -28 -477 -57 -488 -63 -11 -6 -217 -208 -458
-449 -443 -444 -444 -445 -437 -508 3 -30 39 -64 79 -74 20 -5 170 -28 333
-51 l298 -42 82 -85 c46 -46 84 -88 86 -92 1 -4 -96 -67 -216 -139 -219 -131
-242 -150 -242 -203 0 -11 5 -30 11 -42 16 -31 1138 -1155 1171 -1173 15 -8
36 -14 47 -14 53 0 72 23 203 242 72 120 135 217 139 216 4 -2 46 -40 92 -86
l85 -82 42 -298 c23 -163 46 -313 51 -333 10 -40 44 -76 74 -79 63 -7 64 -6
508 437 241 241 443 447 449 458 6 11 35 231 63 488 l53 469 329 331 c327 329
383 392 480 537 279 413 475 1034 543 1714 27 271 27 271 -14 312 -31 31 -39
34 -92 33 -33 -1 -138 -9 -234 -19z m146 -272 c-17 -196 -59 -446 -113 -672
l-35 -149 -374 374 c-206 206 -374 375 -374 376 0 1 66 17 148 37 159 38 383
78 527 95 50 6 101 13 115 15 14 2 45 4 69 5 l44 1 -7 -82z m-663 -586 l448
-448 -36 -100 c-98 -266 -267 -555 -433 -739 -49 -55 -381 -390 -736 -745
l-646 -645 -403 403 c-395 394 -404 402 -443 402 -42 0 -74 -20 -94 -59 -29
-56 -20 -66 395 -481 217 -217 395 -399 395 -405 0 -13 -122 -135 -135 -135
-13 0 -1265 1252 -1265 1265 0 21 1694 1700 1776 1762 176 131 395 249 614
332 58 22 107 40 110 41 3 0 207 -202 453 -448z m-2689 -1133 l-412 -411 -228
31 c-126 18 -237 35 -247 39 -14 6 51 75 320 344 l338 338 295 34 c162 18 306
34 320 35 20 1 -61 -85 -386 -410z m225 -1333 l403 -404 -102 -171 c-57 -94
-105 -171 -109 -171 -13 0 -945 939 -938 946 8 9 330 203 337 204 3 0 187
-182 409 -404z m1706 -137 l-35 -314 -338 -338 c-269 -269 -338 -334 -344
-320 -4 10 -21 121 -39 247 l-31 228 408 409 c224 224 409 407 411 405 2 -1
-13 -144 -32 -317z"/>
<path d="M3125 3839 c-27 -6 -88 -28 -135 -51 -166 -80 -291 -242 -325 -423
-19 -96 -19 -141 0 -230 49 -234 236 -421 470 -470 89 -19 134 -19 232 0 179
34 342 159 421 325 157 326 0 708 -339 827 -84 29 -236 40 -324 22z m239 -204
c134 -41 238 -149 276 -288 33 -123 -12 -280 -110 -378 -187 -187 -511 -135
-630 101 -115 227 -2 488 245 566 55 17 160 17 219 -1z"/>
<path d="M1683 2652 c-34 -5 -73 -58 -73 -99 0 -25 8 -43 29 -64 73 -72 193 0
161 97 -6 18 -17 37 -25 44 -18 15 -65 27 -92 22z"/>
<path d="M488 1193 c-180 -180 -332 -339 -339 -354 -8 -21 -8 -37 1 -63 14
-43 48 -66 97 -66 36 0 51 14 365 327 180 180 332 339 339 354 8 21 8 37 -1
63 -15 46 -44 66 -94 66 -39 0 -47 -7 -368 -327z"/>
<path d="M1090 1224 c-36 -24 -1027 -1012 -1061 -1058 -39 -53 -38 -89 5 -132
43 -43 79 -44 132 -5 46 34 1034 1025 1058 1061 26 39 21 84 -15 119 -35 36
-80 41 -119 15z"/>
<path d="M1375 941 c-16 -10 -173 -162 -347 -338 -303 -304 -318 -321 -318
-357 0 -48 23 -82 66 -96 26 -9 42 -9 63 -1 15 7 174 159 354 339 313 314 327
329 327 365 0 48 -23 82 -62 96 -41 15 -48 14 -83 -8z"/>
</g>
</svg>
